<?xml version="1.0" encoding="UTF-8"?>
<!DOCTYPE svg PUBLIC "-//W3C//DTD SVG 1.1//EN" "http://www.w3.org/Graphics/SVG/1.1/DTD/svg11.dtd">
<!-- Creator: CorelDRAW 2021 (64-Bit) -->
<svg xmlns="http://www.w3.org/2000/svg" xml:space="preserve" width="200px" height="229px" version="1.1" style="shape-rendering:geometricPrecision; text-rendering:geometricPrecision; image-rendering:optimizeQuality; fill-rule:evenodd; clip-rule:evenodd"
viewBox="0 0 78 89"
 xmlns:xlink="http://www.w3.org/1999/xlink"
 xmlns:xodm="http://www.corel.com/coreldraw/odm/2003">
 <defs>
  <style type="text/css">
   <![CDATA[
    .fil1 {fill:#E66540;fill-rule:nonzero}
    .fil3 {fill:#A4B3BE;fill-rule:nonzero}
    .fil2 {fill:#688193;fill-rule:nonzero}
    .fil0 {fill:#393754;fill-rule:nonzero}
   ]]>
  </style>
 </defs>
 <g id="Layer_x0020_1">
  <metadata id="CorelCorpID_0Corel-Layer"/>
  <g id="_2070499898880">
   <polygon class="fil0" points="37,89 0,67 0,52 37,74 "/>
   <polygon class="fil1" points="74,67 37,89 37,74 74,52 "/>
   <polygon class="fil2" points="37,9 0,31 0,46 37,24 "/>
   <polygon class="fil3" points="74,31 37,9 37,24 74,46 "/>
   <polygon class="fil0" points="37,68 0,46 0,31 37,53 "/>
   <polygon class="fil1" points="74,46 37,68 37,53 74,31 "/>
   <polygon class="fil1" points="45,35 51,35 51,28 45,28 "/>
   <polygon class="fil2" points="55,31 65,31 65,22 55,22 "/>
   <polygon class="fil0" points="69,27 78,27 78,17 69,17 "/>
   <polygon class="fil1" points="58,14 72,14 72,0 58,0 "/>
   <polygon class="fil0" points="42,18 54,18 54,6 42,6 "/>
  </g>
 </g>
</svg>
